<?xml version="1.0" encoding="utf-8"?>
<!-- Generator: Adobe Illustrator 17.0.0, SVG Export Plug-In . SVG Version: 6.00 Build 0)  -->
<!DOCTYPE svg PUBLIC "-//W3C//DTD SVG 1.1//EN" "http://www.w3.org/Graphics/SVG/1.1/DTD/svg11.dtd">
<svg version="1.1" id="Layer_1" xmlns="http://www.w3.org/2000/svg" xmlns:xlink="http://www.w3.org/1999/xlink" x="0px" y="0px"
	 width="612px" height="151px" viewBox="0 0 612 151" enable-background="new 0 0 612 151" xml:space="preserve">
<title>Logo Fondesa</title>
<path fill="#003097" d="M11.27,141.76v-16.23h3.4v13.53h5.08v2.7H11.27z"/>
<path fill="#003097" d="M21.1,141.76l4.5-16.23h4.47l4.45,16.23H30.9l-0.9-3.6h-4.63l-0.92,3.6H21.1z M27.64,128.64L27.64,128.64
	l-1.56,7h3.24L27.64,128.64z"/>
<path fill="#003097" d="M42.87,141.76v-16.23h8.86v2.49h-5.47v4h5v2.5h-5v4.74h5.65v2.5L42.87,141.76L42.87,141.76z"/>
<path fill="#003097" d="M55.28,125.53h5.67c4.45,0,5.28,3,5.28,8c0,2.5,0.38,8.21-5.42,8.21h-5.53
	C55.28,141.74,55.28,125.53,55.28,125.53z M58.68,139.26h1.64c2.07,0,2.47-1.55,2.47-5.62c0-3,0-5.62-2.36-5.62h-1.75V139.26z"/>
<path fill="#003097" d="M81.05,125.53v11.51c0,2.42-1.37,5-5.51,5c-3.73,0-5.53-1.94-5.53-5v-11.51h3.4v11.28
	c0,2,0.85,2.79,2.09,2.79c1.48,0,2.16-1,2.16-2.79v-11.28H81.05z"/>
<path fill="#003097" d="M84.79,133.64c0-4.29,0-8.38,5.6-8.38c3.46,0,4.85,1.91,4.72,5.39h-3.33c0-2.15-0.38-3-1.39-3
	c-1.92,0-2.16,1.79-2.16,5.95s0.24,6,2.16,6c1.57,0,1.5-2,1.55-3.31h3.35c0,4.34-1.73,5.74-4.9,5.74
	C84.79,142.03,84.79,137.89,84.79,133.64z"/>
<path fill="#003097" d="M97.07,141.76l4.45-16.23H106l4.4,16.23h-3.57l-0.9-3.6h-4.59l-0.92,3.6L97.07,141.76z M103.61,128.64
	L103.61,128.64l-1.55,7h3.24L103.61,128.64z"/>
<path fill="#003097" d="M112.88,133.64c0-4.29,0-8.38,5.6-8.38c3.46,0,4.85,1.91,4.72,5.39h-3.33c0-2.15-0.38-3-1.39-3
	c-1.92,0-2.16,1.79-2.16,5.95s0.24,6,2.16,6c1.57,0,1.5-2,1.55-3.31h3.35c0,4.34-1.74,5.74-4.9,5.74
	C112.88,142.03,112.88,137.89,112.88,133.64z"/>
<path fill="#003097" d="M126.66,141.76v-16.23h3.4v16.23H126.66z"/>
<path fill="#003097" d="M133.86,133.64c0-4.29,0-8.38,5.6-8.38s5.6,4.09,5.6,8.38s0,8.39-5.6,8.39S133.86,137.89,133.86,133.64z
	 M141.62,133.64c0-4.16-0.25-5.95-2.16-5.95s-2.16,1.79-2.16,5.95s0.25,6,2.16,6S141.62,137.8,141.62,133.64L141.62,133.64z
	 M142.62,120.64l-3.6,3.21h-1.5l2-3.21H142.62z"/>
<path fill="#003097" d="M148.91,141.76v-16.23h4.61l4.32,11.24l0,0v-11.24h3.17v16.23h-4.49l-4.43-11.87l0,0v11.87H148.91z"/>
<path fill="#003097" d="M180.25,125.53v2.7h-3.73v13.53h-3.4v-13.53h-3.77v-2.7H180.25z"/>
<path fill="#003097" d="M182.96,141.76v-16.23h8.85v2.49h-5.46v4h5v2.5h-5v4.74h5.64v2.5L182.96,141.76L182.96,141.76z"/>
<path fill="#003097" d="M201.52,125.53h5.66c4.45,0,5.28,3,5.28,8c0,2.5,0.39,8.21-5.41,8.21h-5.53V125.53z M204.91,139.26h1.61
	c2.07,0,2.47-1.55,2.47-5.62c0-3,0-5.62-2.36-5.62h-1.75L204.91,139.26z"/>
<path fill="#003097" d="M214.52,141.76l4.49-16.23h4.51l4.4,16.23h-3.57l-0.9-3.6h-4.63l-0.92,3.6H214.52z M221.05,128.64H221
	l-1.55,7h3.24L221.05,128.64z"/>
<path fill="#003097" d="M236.3,125.53h6.11c3.11,0,4.32,1.89,4.32,4.85c0,1.85-0.54,4.77-4.52,4.77h-2.52v6.61h-3.39V125.53z
	 M239.69,132.65h1.89c1,0,1.71-1.1,1.71-2.18c0-1.32-0.36-2.45-1.89-2.45h-1.71V132.65z"/>
<path fill="#003097" d="M249.75,133.64c0-4.29,0-8.38,5.6-8.38c5.6,0,5.59,4.09,5.59,8.38s0,8.39-5.59,8.39
	C249.76,142.03,249.75,137.89,249.75,133.64z M257.5,133.64c0-4.16-0.24-5.95-2.15-5.95c-1.91,0-2.16,1.79-2.16,5.95s0.25,6,2.16,6
	s2.17-1.84,2.17-6H257.5z"/>
<path fill="#003097" d="M264.84,125.53h5.68c4.45,0,5.29,3,5.29,8c0,2.5,0.38,8.21-5.42,8.21h-5.53L264.84,125.53z M268.23,139.26
	h1.64c2.07,0,2.48-1.55,2.48-5.62c0-3,0-5.62-2.36-5.62h-1.76L268.23,139.26z"/>
<path fill="#003097" d="M279.64,141.76v-16.23h8.88v2.49h-5.46v4h5v2.5h-5v4.74h5.64v2.5L279.64,141.76L279.64,141.76z"/>
<path fill="#003097" d="M295.31,141.76h-3.39v-16.23h6.27c2.31,0,3.8,1.48,3.8,4.25c0,2.06-0.81,3.62-3,4l0,0
	c1.59-0.048,2.918,1.202,2.966,2.792c0.004,0.133-0.001,0.266-0.016,0.398c-0.042,1.599,0.085,3.198,0.38,4.77h-3.33
	c-0.345-1.012-0.467-2.086-0.36-3.15c0-1.93,0.18-3.57-2.42-3.57h-0.88L295.31,141.76z M295.31,132.54h1.51
	c1.34,0,1.73-1.35,1.73-2.38c0-1.55-0.65-2.14-1.73-2.14h-1.51V132.54z"/>
<path fill="#003097" d="M311.71,125.53h6.11c3.1,0,4.32,1.89,4.32,4.85c0,1.85-0.54,4.77-4.52,4.77h-2.52v6.61h-3.39V125.53z
	 M315.1,132.65h1.89c1,0,1.71-1.1,1.71-2.18c0-1.32-0.36-2.45-1.89-2.45h-1.71V132.65z"/>
<path fill="#003097" d="M323.13,141.76l4.5-16.23h4.47l4.42,16.23h-3.58l-0.9-3.6h-4.63l-0.92,3.6H323.13z M329.67,128.64
	L329.67,128.64l-1.55,7h3.23L329.67,128.64z"/>
<path fill="#003097" d="M342.52,141.76h-3.39v-16.23h6.27c2.31,0,3.8,1.48,3.8,4.25c0,2.06-0.81,3.62-3,4l0,0
	c1.59-0.042,2.913,1.212,2.956,2.802c0.003,0.13-0.002,0.259-0.016,0.388c-0.042,1.599,0.085,3.198,0.38,4.77h-3.32
	c-0.345-1.012-0.467-2.086-0.36-3.15c0-1.93,0.18-3.57-2.43-3.57h-0.89V141.76z M342.52,132.54h1.51c1.35,0,1.73-1.35,1.73-2.38
	c0-1.55-0.65-2.14-1.73-2.14h-1.51V132.54z"/>
<path fill="#003097" d="M351.6,141.76l4.5-16.23h4.47l4.41,16.23h-3.57l-0.9-3.6h-4.63l-0.93,3.6H351.6z M358.15,128.64h-0.05
	l-1.58,7h3.24L358.15,128.64z"/>
<path fill="#003097" d="M376.7,141.76h-3.39v-16.23h6.27c2.31,0,3.8,1.48,3.8,4.25c0,2.06-0.81,3.62-3,4l0,0
	c1.59-0.042,2.913,1.212,2.956,2.802c0.003,0.13-0.002,0.259-0.016,0.388c-0.042,1.599,0.085,3.198,0.38,4.77h-3.32
	c-0.348-1.011-0.474-2.086-0.37-3.15c0-1.93,0.19-3.57-2.42-3.57h-0.88L376.7,141.76z M376.7,132.54h1.51
	c1.35,0,1.73-1.35,1.73-2.38c0-1.55-0.65-2.14-1.73-2.14h-1.51V132.54z"/>
<path fill="#003097" d="M386.98,141.76v-16.23h8.86v2.49h-5.47v4h5v2.5h-5v4.74h5.65v2.5L386.98,141.76L386.98,141.76z"/>
<path fill="#003097" d="M398.11,141.76l4.5-16.23h4.47l4.44,16.23h-3.58l-0.9-3.6h-4.63l-0.92,3.6H398.11z M404.65,128.64
	L404.65,128.64l-1.55,7h3.24L404.65,128.64z"/>
<path fill="#003097" d="M414.24,141.76v-16.23h3.39v13.53h5.08v2.7H414.24z"/>
<path fill="#003097" d="M425.33,141.76v-16.23h3.39v16.23H425.33z"/>
<path fill="#003097" d="M432.07,125.53h9.78v2.94l-6.83,10.79h7v2.5h-10.26v-3l6.81-10.77h-6.5V125.53z"/>
<path fill="#003097" d="M443.81,141.76l4.5-16.23h4.47l4.41,16.23h-3.58l-0.89-3.6h-4.64l-0.92,3.6H443.81z M450.36,128.64
	L450.36,128.64l-1.55,7h3.24L450.36,128.64z"/>
<path fill="#003097" d="M463.24,141.76h-3.39v-16.23h6.27c2.32,0,3.8,1.48,3.8,4.25c0,2.06-0.81,3.62-3,4l0,0
	c1.59-0.042,2.913,1.212,2.956,2.802c0.003,0.13-0.002,0.259-0.016,0.388c-0.042,1.599,0.085,3.198,0.38,4.77h-3.32
	c-0.351-0.993-0.487-2.05-0.4-3.1c0-1.93,0.18-3.57-2.43-3.57h-0.88L463.24,141.76z M463.24,132.54h1.51c1.35,0,1.73-1.35,1.73-2.38
	c0-1.55-0.65-2.14-1.73-2.14h-1.51V132.54z"/>
<path fill="#003097" d="M488.79,125.53v2.7h-3.78v13.53h-3.39v-13.53h-3.78v-2.7H488.79z"/>
<path fill="#003097" d="M502.46,125.53v11.51c0,2.42-1.37,5-5.51,5c-3.73,0-5.52-1.94-5.52-5v-11.51h3.39v11.28
	c0,2,0.85,2.79,2.09,2.79c1.48,0,2.16-1,2.16-2.79v-11.28H502.46z"/>
<path fill="#003097" d="M510.76,142.03c-4.2,0-5-2.48-4.81-5.29h3.4c0,1.56,0.06,2.86,1.93,2.86
	c0.893,0.058,1.664-0.618,1.722-1.511c0.007-0.11,0.003-0.22-0.012-0.329c0-2.93-6.83-3.11-6.83-7.94c0-2.54,1.21-4.56,5.34-4.56
	c3.31,0,4.95,1.48,4.73,4.88h-3.31c0-1.22-0.2-2.45-1.57-2.45c-0.866-0.104-1.653,0.514-1.757,1.38
	c-0.014,0.116-0.015,0.233-0.003,0.35c0,3.08,6.84,2.81,6.84,7.91C516.43,141.53,513.35,142.03,510.76,142.03z"/>
<path fill="#003097" d="M530.52,142.03c-4.21,0-5-2.48-4.81-5.29h3.39c0,1.56,0.07,2.86,1.93,2.86
	c0.893,0.058,1.664-0.618,1.722-1.511c0.007-0.11,0.003-0.22-0.012-0.329c0-2.93-6.83-3.11-6.83-7.94c0-2.54,1.21-4.56,5.35-4.56
	c3.3,0,4.94,1.48,4.72,4.88h-3.31c0-1.22-0.2-2.45-1.57-2.45c-0.867-0.098-1.65,0.525-1.748,1.392
	c-0.013,0.112-0.013,0.226-0.002,0.338c0,3.08,6.83,2.81,6.83,7.91C536.15,141.53,533.07,142.03,530.52,142.03z"/>
<path fill="#003097" d="M550.68,125.53v11.51c0,2.42-1.37,5-5.51,5c-3.73,0-5.53-1.94-5.53-5v-11.51h3.4v11.28
	c0,2,0.85,2.79,2.09,2.79c1.48,0,2.16-1,2.16-2.79v-11.28H550.68z"/>
<path fill="#003097" d="M554.58,141.76v-16.23h8.85v2.49h-5.46v4h5v2.5h-5v4.74h5.64v2.5L554.58,141.76L554.58,141.76z"/>
<path fill="#003097" d="M566.95,141.76v-16.23h4.57l4.32,11.24l0,0v-11.24h3.17v16.23h-4.47l-4.43-11.87l0,0v11.87H566.95z
	 M576.95,120.99c-0.089,0.662-0.336,1.293-0.72,1.84c-0.35,0.582-0.962,0.956-1.64,1c-0.634-0.023-1.252-0.201-1.8-0.52
	c-0.48-0.276-1.017-0.437-1.57-0.47c-0.57,0-0.79,0.52-0.88,1h-1.33c0.16-1.21,1-2.83,2.34-2.83c0.634,0.067,1.247,0.264,1.8,0.58
	c0.43,0.249,0.9,0.418,1.39,0.5c0.63,0,1-0.41,1-1.08L576.95,120.99z"/>
<path fill="#003097" d="M582.89,133.64c0-4.29,0-8.38,5.6-8.38s5.59,4.09,5.59,8.38s0,8.39-5.59,8.39S582.89,137.89,582.89,133.64z
	 M590.64,133.64c0-4.16-0.24-5.95-2.15-5.95s-2.16,1.79-2.16,5.95s0.25,6,2.16,6S590.64,137.8,590.64,133.64z"/>
<path fill="#003097" d="M602.32,142.03c-4.2,0-5-2.48-4.81-5.29h3.39c0,1.56,0.07,2.86,1.94,2.86
	c0.893,0.053,1.66-0.629,1.713-1.522c0.006-0.106,0.002-0.213-0.013-0.318c0-2.93-6.83-3.11-6.83-7.94c0-2.54,1.21-4.56,5.35-4.56
	c3.31,0,5,1.48,4.72,4.88h-3.26c0-1.22-0.21-2.45-1.58-2.45c-0.867-0.098-1.65,0.525-1.748,1.392
	c-0.013,0.112-0.013,0.226-0.002,0.338c0,3.08,6.83,2.81,6.83,7.91C607.98,141.53,604.9,142.03,602.32,142.03z"/>
<path fill="#003097" d="M9.86,10.51h69.07v19.4h-41v15.73h35v18.23h-35v36.89h-28L9.86,10.51z M78.63,55.71
	c0-14.74,4.117-26.217,12.35-34.43s19.683-12.32,34.35-12.32c15.04,0,26.633,4.047,34.78,12.14s12.217,19.387,12.21,33.88
	c0,10.54-1.787,19.207-5.36,26c-3.474,6.661-8.848,12.139-15.44,15.74c-6.667,3.74-15.03,5.61-25.09,5.61
	c-10.2,0-18.65-1.62-25.35-4.86c-6.829-3.39-12.481-8.756-16.22-15.4c-4.15-7-6.24-15.82-6.24-26.36 M106.56,55.83
	c0,9.12,1.687,15.67,5.06,19.65c3.41,4,8,6,13.88,6c6,0,10.647-1.947,13.94-5.84s4.94-10.893,4.94-21c0-8.5-1.727-14.7-5.18-18.6
	c-3.453-3.9-8.12-5.873-14-5.92c-5.2-0.181-10.196,2.03-13.56,6c-3.42,4-5.13,10.59-5.13,19.77 M177,10.57h26.08l34,49.93V10.51
	h26.44v90.28h-26.34l-33.87-49.57v49.57h-26.25L177,10.57z M269.25,10.57h41.5c8.2,0,14.79,1.1,19.81,3.32
	c4.896,2.1,9.197,5.377,12.52,9.54c3.353,4.282,5.79,9.207,7.16,14.47c1.512,5.69,2.278,11.552,2.28,17.44
	c0,9.653-1.113,17.143-3.34,22.47c-2.018,5.075-5.128,9.643-9.11,13.38c-3.545,3.357-7.851,5.804-12.55,7.13
	c-5.424,1.551-11.029,2.381-16.67,2.47h-41.5L269.25,10.57z M297.19,31.01v49.32h6.84c5.85,0,10-0.62,12.46-1.89
	c2.658-1.532,4.706-3.934,5.8-6.8c1.4-3.227,2.1-8.457,2.1-15.69c0-9.56-1.563-16.11-4.69-19.65s-8.307-5.303-15.54-5.29H297.19z
	 M355.25,10.57h74.86v19.26h-46.79v14.35h43.46v18.43h-43.46v17.73h48.2v20.45h-76.21L355.25,10.57z M433.57,70.97l26.59-1.65
	c0.58,4.3,1.75,7.583,3.51,9.85c2.88,3.65,7,5.49,12.33,5.49c4,0,7-0.93,9.21-2.78c2.013-1.577,3.213-3.974,3.27-6.53
	c-0.059-2.445-1.189-4.741-3.09-6.28c-2.06-1.847-6.833-3.597-14.32-5.25c-12.247-2.747-20.983-6.413-26.21-11
	c-5.154-4.305-8.059-10.727-7.89-17.44c0.013-4.665,1.405-9.223,4-13.1c3.001-4.378,7.233-7.767,12.16-9.74
	c5.42-2.367,12.84-3.557,22.26-3.57c11.56,0,20.357,2.157,26.39,6.47s9.653,11.127,10.86,20.44l-26.33,1.54
	c-0.7-4.06-2.17-7-4.44-8.87s-5.31-2.77-9.25-2.77c-3.25,0-5.7,0.71-7.34,2.1c-1.569,1.181-2.485,3.036-2.47,5
	c0.034,1.535,0.771,2.969,2,3.89c1.32,1.18,4.44,2.3,9.38,3.31c12.21,2.62,20.94,5.31,26.21,8s9.14,6,11.54,10
	c2.432,4.024,3.686,8.649,3.62,13.35c0.033,5.693-1.638,11.266-4.8,16c-3.285,4.961-7.96,8.843-13.44,11.16
	c-5.767,2.493-13.027,3.743-21.78,3.75c-15.373,0-26.017-2.96-31.93-8.88c-5.94-5.9-9.27-13.41-10.07-22.54 M574.76,85.92h-31.73
	l-4.39,14.91h-28.55l34-90.28h30.43l34,90.28h-29.23L574.76,85.92z M568.9,66.4l-10-32.46l-9.92,32.46H568.9z M592.18,10.64
	c1.357,0.003,2.691,0.347,3.88,1c1.267,0.655,2.311,1.671,3,2.92c0.702,1.216,1.071,2.596,1.07,4
	c-0.008,1.373-0.374,2.721-1.06,3.91c-0.664,1.237-1.675,2.252-2.91,2.92c-2.437,1.4-5.433,1.4-7.87,0
	c-1.234-0.675-2.25-1.688-2.93-2.92c-1.399-2.44-1.399-5.44,0-7.88c0.693-1.245,1.736-2.26,3-2.92c1.192-0.655,2.53-0.999,3.89-1
	 M592.25,11.98c-1.139,0.002-2.259,0.298-3.25,0.86c-1.039,0.557-1.894,1.405-2.46,2.44c-1.186,2.026-1.186,4.534,0,6.56
	c0.572,1.026,1.417,1.873,2.44,2.45c2.043,1.134,4.527,1.134,6.57,0c1.023-0.574,1.864-1.423,2.43-2.45
	c1.18-2.027,1.18-4.533,0-6.56c-0.565-1.039-1.424-1.888-2.47-2.44c-0.984-0.56-2.097-0.857-3.23-0.86 M588.81,22.98v-8.5h2.92
	c0.728-0.036,1.456,0.041,2.16,0.23c0.432,0.163,0.805,0.452,1.07,0.83c0.261,0.357,0.401,0.788,0.4,1.23
	c0.004,0.612-0.233,1.201-0.66,1.64c-0.475,0.459-1.101,0.729-1.76,0.76c0.27,0.102,0.517,0.255,0.73,0.45
	c0.467,0.525,0.885,1.09,1.25,1.69l1,1.67h-1.68l-0.74-1.35c-0.365-0.742-0.852-1.419-1.44-2c-0.324-0.217-0.711-0.319-1.1-0.29
	h-0.82v3.62L588.81,22.98z M590.17,18.19h1.67c0.568,0.059,1.14-0.067,1.63-0.36c0.289-0.225,0.453-0.574,0.44-0.94
	c-0.002-0.239-0.075-0.472-0.21-0.67c-0.141-0.21-0.349-0.365-0.59-0.44c-0.444-0.131-0.908-0.185-1.37-0.16h-1.57L590.17,18.19z"/>
</svg>
